# xmcd
#
# Track frame offsets: 
#        150
#        16431
#        49504
#
# Disc length: 1036 seconds
#
# Revision: 0
# Processed by: cddbd v1.5.2PL0 Copyright (c) Steve Scherf et al.
# Submitted via: ExactAudioCopy v0.99pb3
#
DISCID=1a040a03
DTITLE=Lazyboy - Police Dogs Bonfire
DYEAR=2005
DGENRE=Sunday Best
TTITLE0=Police Dogs Bonfire (original edit)
TTITLE1=Police Dogs Bonfire (Linus Loves mix)
TTITLE2=Police Dogs Bonfire (Reverso 68 mix)
EXTD=
EXTT0=
EXTT1=
EXTT2=
PLAYORDER=
